<?xml version="1.0" encoding="utf-8"?>
<!-- Generator: Adobe Illustrator 16.0.0, SVG Export Plug-In . SVG Version: 6.00 Build 0)  -->
<!DOCTYPE svg PUBLIC "-//W3C//DTD SVG 1.1//EN" "http://www.w3.org/Graphics/SVG/1.1/DTD/svg11.dtd">
<svg version="1.1"
	 id="svg2" xmlns:cc="http://creativecommons.org/ns#" xmlns:rdf="http://www.w3.org/1999/02/22-rdf-syntax-ns#" xmlns:svg="http://www.w3.org/2000/svg" xmlns:inkscape="http://www.inkscape.org/namespaces/inkscape" xmlns:sodipodi="http://sodipodi.sourceforge.net/DTD/sodipodi-0.dtd" xmlns:dc="http://purl.org/dc/elements/1.1/" sodipodi:docname="bitcoin-logo-noshadow.svg" inkscape:version="0.48.2 r9819"
	 xmlns="http://www.w3.org/2000/svg" xmlns:xlink="http://www.w3.org/1999/xlink" x="0px" y="0px" width="1024px" height="1024px"
	 viewBox="0 0 1024 1024" enable-background="new 0 0 1024 1024" xml:space="preserve">
<g>
	<path d="M475.954,110.178c202.09,0,365.871,163.799,365.871,365.837c0,202.077-163.78,365.871-365.871,365.871
		c-202.062,0-365.792-163.794-365.792-365.871C110.162,273.977,273.893,110.178,475.954,110.178 M475.954,26
		C355.802,26,242.762,72.819,157.83,157.808c-85.037,85.018-131.83,197.993-131.83,318.208c0,120.237,46.793,233.226,131.83,318.188
		C242.762,879.161,355.802,926,475.954,926c120.208,0,233.241-46.792,318.208-131.797c85.09-84.962,131.836-197.95,131.836-318.188
		c0-120.215-46.746-233.243-131.836-318.208C709.195,72.819,596.163,26,475.954,26L475.954,26z"/>
	<path d="M632.23,311.968l28.386-48.676l-89.652-52.248l-28.326,48.614c-81.119-24.834-169.995-1.768-228.66,59.441l76.174,44.434
		c44.281-34.146,106.637-40.191,157.876-10.268c67.438,39.398,90.287,126.267,50.953,193.688
		c-39.346,67.424-126.245,90.228-193.649,50.911c-51.421-30.027-76.888-87.724-68.623-143.233l-76.083-44.485
		c-24.978,82.456-0.66,172.72,62.793,231.206l-28.338,48.638l89.641,52.277l29.089-49.868
		c97.085,28.259,204.582-11.721,257.882-103.035C725.544,497.09,706.489,382.486,632.23,311.968z"/>
</g>
</svg>
