<?xml version="1.0" encoding="utf-8"?>
<!-- Generator: Adobe Illustrator 16.0.0, SVG Export Plug-In . SVG Version: 6.00 Build 0)  -->
<!DOCTYPE svg PUBLIC "-//W3C//DTD SVG 1.1//EN" "http://www.w3.org/Graphics/SVG/1.1/DTD/svg11.dtd">
<svg version="1.1"
	 id="svg2" xmlns:cc="http://creativecommons.org/ns#" xmlns:rdf="http://www.w3.org/1999/02/22-rdf-syntax-ns#" xmlns:svg="http://www.w3.org/2000/svg" xmlns:inkscape="http://www.inkscape.org/namespaces/inkscape" xmlns:sodipodi="http://sodipodi.sourceforge.net/DTD/sodipodi-0.dtd" xmlns:dc="http://purl.org/dc/elements/1.1/" inkscape:version="0.48.2 r9819" sodipodi:docname="bitcoin-logo-noshadow.svg"
	 xmlns="http://www.w3.org/2000/svg" xmlns:xlink="http://www.w3.org/1999/xlink" x="0px" y="0px" width="1024px" height="1024px"
	 viewBox="0 0 1024 1024" enable-background="new 0 0 1024 1024" xml:space="preserve">
<g>
	
		<image overflow="visible" opacity="0.75" width="971" height="971" xlink:href="20F72CCD.png"  transform="matrix(1 0 0 1 26.5 31.5)">
	</image>
	<g>
		<circle fill="#FFFFFF" cx="512" cy="512" r="470"/>
	</g>
</g>
<g>
	<path d="M511.955,146.178c202.09,0,365.871,163.799,365.871,365.837c0,202.077-163.78,365.871-365.871,365.871
		c-202.062,0-365.792-163.794-365.792-365.871C146.163,309.977,309.894,146.178,511.955,146.178 M511.955,62
		c-120.152,0-233.192,46.819-318.124,131.808c-85.037,85.018-131.83,197.993-131.83,318.208
		c0,120.237,46.793,233.227,131.83,318.188C278.763,915.161,391.803,962,511.955,962c120.208,0,233.241-46.792,318.208-131.797
		c85.09-84.962,131.836-197.95,131.836-318.188c0-120.215-46.746-233.243-131.836-318.208C745.196,108.819,632.164,62,511.955,62
		L511.955,62z"/>
	<path d="M668.23,347.968l28.387-48.676l-89.652-52.248l-28.326,48.614c-81.119-24.834-169.995-1.768-228.659,59.44l76.174,44.435
		c44.28-34.146,106.637-40.191,157.876-10.269c67.438,39.398,90.287,126.268,50.953,193.688
		c-39.347,67.424-126.245,90.228-193.649,50.911c-51.421-30.027-76.889-87.725-68.623-143.233l-76.083-44.484
		c-24.978,82.455-0.66,172.72,62.793,231.205l-28.338,48.639l89.642,52.276l29.088-49.867
		c97.085,28.259,204.582-11.722,257.883-103.035C761.545,533.09,742.49,418.486,668.23,347.968z"/>
</g>
</svg>
